<?xml version="1.0" encoding="UTF-8" standalone="no"?>
<!DOCTYPE svg PUBLIC "-//W3C//DTD SVG 1.1//EN"
 "http://www.w3.org/Graphics/SVG/1.1/DTD/svg11.dtd">
<!-- Generated by graphviz version 2.26.3 (20100126.1600)
 -->
<!-- Title: G Pages: 1 -->
<svg width="160pt" height="244pt"
 viewBox="0.00 0.00 160.00 244.00" xmlns="http://www.w3.org/2000/svg" xmlns:xlink="http://www.w3.org/1999/xlink">
<g id="graph1" class="graph" transform="scale(1 1) rotate(0) translate(4 240)">
<title>G</title>
<polygon fill="white" stroke="white" points="-4,5 -4,-240 157,-240 157,5 -4,5"/>
<g id="graph2" class="cluster"><title>cluster_Global</title>
<polyline fill="none" stroke="gray" points="20,-8 132,-8 "/>
<path fill="none" stroke="gray" d="M132,-8C138,-8 144,-14 144,-20"/>
<polyline fill="none" stroke="gray" points="144,-20 144,-216 "/>
<path fill="none" stroke="gray" d="M144,-216C144,-222 138,-228 132,-228"/>
<polyline fill="none" stroke="gray" points="132,-228 20,-228 "/>
<path fill="none" stroke="gray" d="M20,-228C14,-228 8,-222 8,-216"/>
<polyline fill="none" stroke="gray" points="8,-216 8,-20 "/>
<path fill="none" stroke="gray" d="M8,-20C8,-14 14,-8 20,-8"/>
<text text-anchor="middle" x="76" y="-214.1" font-family="Times Roman,serif" font-size="11.00" fill="gray">\</text>
</g>
<g id="graph3" class="cluster"><title>cluster_\sesy</title>
<polyline fill="none" stroke="gray" points="28,-16 124,-16 "/>
<path fill="none" stroke="gray" d="M124,-16C130,-16 136,-22 136,-28"/>
<polyline fill="none" stroke="gray" points="136,-28 136,-186 "/>
<path fill="none" stroke="gray" d="M136,-186C136,-192 130,-198 124,-198"/>
<polyline fill="none" stroke="gray" points="124,-198 28,-198 "/>
<path fill="none" stroke="gray" d="M28,-198C22,-198 16,-192 16,-186"/>
<polyline fill="none" stroke="gray" points="16,-186 16,-28 "/>
<path fill="none" stroke="gray" d="M16,-28C16,-22 22,-16 28,-16"/>
<text text-anchor="middle" x="76" y="-184.1" font-family="Times Roman,serif" font-size="11.00" fill="gray">sesy</text>
</g>
<!-- \\sesy\\SessionSecure -->
<g id="node3" class="node"><title>\\sesy\\SessionSecure</title>
<polygon fill="none" stroke="black" points="128,-168 24,-168 24,-132 128,-132 128,-168"/>
<text text-anchor="middle" x="76" y="-147.1" font-family="Courier,monospace" font-size="11.00">SessionSecure</text>
</g>
<!-- \\sesy\\SessionConfig -->
<g id="node4" class="node"><title>\\sesy\\SessionConfig</title>
<polygon fill="none" stroke="black" points="128,-114 24,-114 24,-78 128,-78 128,-114"/>
<text text-anchor="middle" x="76" y="-93.1" font-family="Courier,monospace" font-size="11.00">SessionConfig</text>
</g>
<!-- \\sesy\\Session -->
<g id="node5" class="node"><title>\\sesy\\Session</title>
<polygon fill="none" stroke="black" points="108,-60 44,-60 44,-24 108,-24 108,-60"/>
<text text-anchor="middle" x="76" y="-39.1" font-family="Courier,monospace" font-size="11.00">Session</text>
</g>
</g>
</svg>
