<?xml version="1.0" encoding="UTF-8" standalone="no"?>
<!DOCTYPE svg PUBLIC "-//W3C//DTD SVG 1.1//EN"
 "http://www.w3.org/Graphics/SVG/1.1/DTD/svg11.dtd">
<!-- Generated by graphviz version 2.26.3 (20100126.1600)
 -->
<!-- Title: G Pages: 1 -->
<svg width="582pt" height="418pt"
 viewBox="0.00 0.00 582.00 418.00" xmlns="http://www.w3.org/2000/svg" xmlns:xlink="http://www.w3.org/1999/xlink">
<g id="graph1" class="graph" transform="scale(1 1) rotate(0) translate(4 414)">
<title>G</title>
<polygon fill="white" stroke="white" points="-4,5 -4,-414 579,-414 579,5 -4,5"/>
<g id="graph2" class="cluster"><title>cluster_Global</title>
<polyline fill="none" stroke="gray" points="382,-8 554,-8 "/>
<path fill="none" stroke="gray" d="M554,-8C560,-8 566,-14 566,-20"/>
<polyline fill="none" stroke="gray" points="566,-20 566,-390 "/>
<path fill="none" stroke="gray" d="M566,-390C566,-396 560,-402 554,-402"/>
<polyline fill="none" stroke="gray" points="554,-402 382,-402 "/>
<path fill="none" stroke="gray" d="M382,-402C376,-402 370,-396 370,-390"/>
<polyline fill="none" stroke="gray" points="370,-390 370,-20 "/>
<path fill="none" stroke="gray" d="M370,-20C370,-14 376,-8 382,-8"/>
<text text-anchor="middle" x="468" y="-388.1" font-family="Times Roman,serif" font-size="11.00" fill="gray">\</text>
</g>
<g id="graph3" class="cluster"><title>cluster_\sesy</title>
<polyline fill="none" stroke="gray" points="390,-16 546,-16 "/>
<path fill="none" stroke="gray" d="M546,-16C552,-16 558,-22 558,-28"/>
<polyline fill="none" stroke="gray" points="558,-28 558,-360 "/>
<path fill="none" stroke="gray" d="M558,-360C558,-366 552,-372 546,-372"/>
<polyline fill="none" stroke="gray" points="546,-372 390,-372 "/>
<path fill="none" stroke="gray" d="M390,-372C384,-372 378,-366 378,-360"/>
<polyline fill="none" stroke="gray" points="378,-360 378,-28 "/>
<path fill="none" stroke="gray" d="M378,-28C378,-22 384,-16 390,-16"/>
<text text-anchor="middle" x="468" y="-358.1" font-family="Times Roman,serif" font-size="11.00" fill="gray">sesy</text>
</g>
<g id="graph4" class="cluster"><title>cluster_\sesy\tests</title>
<polyline fill="none" stroke="gray" points="398,-176 538,-176 "/>
<path fill="none" stroke="gray" d="M538,-176C544,-176 550,-182 550,-188"/>
<polyline fill="none" stroke="gray" points="550,-188 550,-330 "/>
<path fill="none" stroke="gray" d="M550,-330C550,-336 544,-342 538,-342"/>
<polyline fill="none" stroke="gray" points="538,-342 398,-342 "/>
<path fill="none" stroke="gray" d="M398,-342C392,-342 386,-336 386,-330"/>
<polyline fill="none" stroke="gray" points="386,-330 386,-188 "/>
<path fill="none" stroke="gray" d="M386,-188C386,-182 392,-176 398,-176"/>
<text text-anchor="middle" x="468" y="-328.1" font-family="Times Roman,serif" font-size="11.00" fill="gray">tests</text>
</g>
<g id="graph5" class="cluster"><title>cluster_\sesy\tests\cases</title>
<polyline fill="none" stroke="gray" points="406,-184 530,-184 "/>
<path fill="none" stroke="gray" d="M530,-184C536,-184 542,-190 542,-196"/>
<polyline fill="none" stroke="gray" points="542,-196 542,-300 "/>
<path fill="none" stroke="gray" d="M542,-300C542,-306 536,-312 530,-312"/>
<polyline fill="none" stroke="gray" points="530,-312 406,-312 "/>
<path fill="none" stroke="gray" d="M406,-312C400,-312 394,-306 394,-300"/>
<polyline fill="none" stroke="gray" points="394,-300 394,-196 "/>
<path fill="none" stroke="gray" d="M394,-196C394,-190 400,-184 406,-184"/>
<text text-anchor="middle" x="468" y="-298.1" font-family="Times Roman,serif" font-size="11.00" fill="gray">cases</text>
</g>
<!-- \\sesy\\tests\\cases\\SessionConfigTest -->
<g id="node5" class="node"><title>\\sesy\\tests\\cases\\SessionConfigTest</title>
<polygon fill="none" stroke="black" points="533,-282 403,-282 403,-246 533,-246 533,-282"/>
<text text-anchor="middle" x="468" y="-261.1" font-family="Courier,monospace" font-size="11.00">SessionConfigTest</text>
</g>
<!-- \\PHPUnit_Framework_TestCase -->
<g id="node11" class="node"><title>\\PHPUnit_Framework_TestCase</title>
<ellipse fill="none" stroke="black" cx="165" cy="-237" rx="164.756" ry="18.3848"/>
<text text-anchor="middle" x="165" y="-233.4" font-family="Times Roman,serif" font-size="14.00" fill="gray">\PHPUnit_Framework_TestCase</text>
</g>
<!-- \\sesy\\tests\\cases\\SessionConfigTest&#45;&gt;\\PHPUnit_Framework_TestCase -->
<g id="edge6" class="edge"><title>\\sesy\\tests\\cases\\SessionConfigTest&#45;&gt;\\PHPUnit_Framework_TestCase</title>
<path fill="none" stroke="black" d="M402.254,-258.141C373.105,-255.544 337.642,-252.384 303.114,-249.307"/>
<polygon fill="none" stroke="black" points="303.194,-245.801 292.923,-248.399 302.573,-252.773 303.194,-245.801"/>
</g>
<!-- \\sesy\\tests\\cases\\SessionTest -->
<g id="node6" class="node"><title>\\sesy\\tests\\cases\\SessionTest</title>
<polygon fill="none" stroke="black" points="513,-228 423,-228 423,-192 513,-192 513,-228"/>
<text text-anchor="middle" x="468" y="-207.1" font-family="Courier,monospace" font-size="11.00">SessionTest</text>
</g>
<!-- \\sesy\\tests\\cases\\SessionTest&#45;&gt;\\PHPUnit_Framework_TestCase -->
<g id="edge8" class="edge"><title>\\sesy\\tests\\cases\\SessionTest&#45;&gt;\\PHPUnit_Framework_TestCase</title>
<path fill="none" stroke="black" d="M422.31,-214.071C390.407,-216.914 346.002,-220.871 303.05,-224.698"/>
<polygon fill="none" stroke="black" points="302.696,-221.216 293.046,-225.59 303.318,-228.188 302.696,-221.216"/>
</g>
<!-- \\sesy\\SessionConfig -->
<g id="node7" class="node"><title>\\sesy\\SessionConfig</title>
<polygon fill="none" stroke="black" points="520,-168 416,-168 416,-132 520,-132 520,-168"/>
<text text-anchor="middle" x="468" y="-147.1" font-family="Courier,monospace" font-size="11.00">SessionConfig</text>
</g>
<!-- \\sesy\\SessionSecure -->
<g id="node8" class="node"><title>\\sesy\\SessionSecure</title>
<polygon fill="none" stroke="black" points="520,-114 416,-114 416,-78 520,-78 520,-114"/>
<text text-anchor="middle" x="468" y="-93.1" font-family="Courier,monospace" font-size="11.00">SessionSecure</text>
</g>
<!-- \\sesy\\Session -->
<g id="node9" class="node"><title>\\sesy\\Session</title>
<polygon fill="none" stroke="black" points="500,-60 436,-60 436,-24 500,-24 500,-60"/>
<text text-anchor="middle" x="468" y="-39.1" font-family="Courier,monospace" font-size="11.00">Session</text>
</g>
</g>
</svg>
